:FULLY-SPECIFIED
:FORCE-ALL-JOINTS-BE-3DOF
:DEGREES
713
root 5.53556 21.4341 7.1522 -94.4535 -85.2297 110.737
lfemur -35.6503 -10.9551 10.8729
ltibia 76.2564 0 0
lfoot 6.3322 -7.49754 0
ltoes 30.3593 0 0
rfemur -30.2583 -0.552056 0.807273
rtibia 78.1304 0 0
rfoot 20.3754 -21.1268 0
rtoes 37.1755 0 0
lowerback 5.86593 -0.917474 -1.9219
upperback -1.33633 -1.45553 -1.66411
thorax -4.68299 -0.700236 -0.523303
lowerneck -6.87731 -6.11229 -1.9905
upperneck 0.0749614 -8.14837 4.78865
head 1.49489 -4.00444 1.55542
lclavicle -1.32096e-14 1.94962e-14 0
lhumerus 3.53679 -19.2316 14.7992
lradius 48.3839 0 0
lwrist 24.9994 0 0
lhand -21.9742 -3.00395 0
lfingers 7.12502 0 0
lthumb 4.43361 26.9272 0
rclavicle -1.32096e-14 1.94962e-14 0
rhumerus -13.8815 -4.37585 -24.6393
rradius 99.5168 0 0
rwrist -9.35964 0 0
rhand -28.5358 -35.5528 0
rfingers 7.12502 0 0
rthumb -1.90288 -785.483 0
714
root 5.51711 21.4898 7.4349 -116.277 -85.9681 132.579
lfemur -34.7358 -12.5891 9.80917
ltibia 71.2244 0 0
lfoot 6.90526 -8.63089 0
ltoes 29.8278 0 0
rfemur -31.9845 -0.716673 -0.24356
rtibia 86.9971 0 0
rfoot 20.6717 -21.8463 0
rtoes 40.3357 0 0
lowerback 5.95543 -0.799643 -1.86722
upperback -1.33353 -1.29488 -1.62366
thorax -4.73104 -0.620924 -0.526383
lowerneck -6.88148 -6.29092 -2.19683
upperneck -0.146601 -8.36687 4.83756
head 1.44359 -4.11722 1.59966
lclavicle -1.4907e-14 1.87919e-14 0
lhumerus 1.33619 -19.4144 15.5534
lradius 46.7019 0 0
lwrist 23.9249 0 0
lhand -22.2703 -3.18575 0
lfingers 7.12502 0 0
lthumb 4.14771 26.7519 0
rclavicle -1.4907e-14 1.87919e-14 0
rhumerus -12.8318 -3.15636 -25.9178
rradius 99.499 0 0
rwrist -9.70659 0 0
rhand -27.3368 -34.5548 0
rfingers 7.12502 0 0
rthumb -0.745026 -784.504 0
715
root 5.49323 21.5186 7.72062 -135.385 -86.1559 151.787
lfemur -33.8033 -14.0973 8.80976
ltibia 66.1723 0 0
lfoot 7.50529 -9.77325 0
ltoes 29.3327 0 0
rfemur -33.3811 -1.21807 -1.38304
rtibia 95.2399 0 0
rfoot 21.0951 -22.2002 0
rtoes 42.9856 0 0
lowerback 5.94876 -0.630073 -1.791
upperback -1.35195 -1.06291 -1.58766
thorax -4.74449 -0.506788 -0.548267
lowerneck -6.90449 -6.45932 -2.38212
upperneck -0.362397 -8.57337 4.86872
head 1.39512 -4.22406 1.63454
lclavicle -1.5212e-14 1.77675e-14 0
lhumerus -1.02374 -19.6361 16.3707
lradius 45.29 0 0
lwrist 22.9776 0 0
lhand -22.5104 -3.3533 0
lfingers 7.12502 0 0
lthumb 3.91589 26.5897 0
rclavicle -1.5212e-14 1.77675e-14 0
rhumerus -11.5962 -2.03241 -27.0597
rradius 99.4477 0 0
rwrist -9.99709 0 0
rhand -26.3218 -33.6417 0
rfingers 7.12502 0 0
rthumb 0.235044 -783.608 0
716
root 5.46379 21.5177 8.00759 -149.464 -85.6489 166.089
lfemur -32.8528 -15.4238 7.92372
ltibia 61.2216 0 0
lfoot 8.09105 -10.8652 0
ltoes 28.9234 0 0
rfemur -34.2746 -2.19786 -2.63214
rtibia 102.256 0 0
rfoot 21.7308 -22.0746 0
rtoes 44.8201 0 0
lowerback 5.80845 -0.378505 -1.68514
upperback -1.39958 -0.71853 -1.55738
thorax -4.70934 -0.337568 -0.595827
lowerneck -6.9572 -6.60645 -2.53069
upperneck -0.571935 -8.75379 4.86803
head 1.34946 -4.31813 1.6531
lclavicle -1.33186e-14 1.63003e-14 0
lhumerus -3.58477 -19.8667 17.2347
lradius 44.2483 0 0
lwrist 22.2696 0 0
lhand -22.6494 -3.47306 0
lfingers 7.12502 0 0
lthumb 3.78168 26.4731 0
rclavicle -1.33186e-14 1.63003e-14 0
rhumerus -10.0638 -1.11393 -27.9496
rradius 99.342 0 0
rwrist -10.1738 0 0
rhand -25.6356 -32.8974 0
rfingers 7.12502 0 0
rthumb 0.897697 -782.875 0
717
root 5.45937 21.5144 8.04451 -150.702 -85.5041 167.37
lfemur -32.7267 -15.5782 7.8249
ltibia 60.5799 0 0
lfoot 8.17492 -11.008 0
ltoes 28.8852 0 0
rfemur -34.3292 -2.38524 -2.81607
rtibia 103.036 0 0
rfoot 21.8417 -22.0018 0
rtoes 44.9649 0 0
lowerback 5.77275 -0.336998 -1.66799
upperback -1.40968 -0.661632 -1.55434
thorax -4.69866 -0.309648 -0.605229
lowerneck -6.96795 -6.62311 -2.54651
upperneck -0.59869 -8.77416 4.86458
head 1.34392 -4.32884 1.65384
lclavicle -1.27601e-14 1.60425e-14 0
lhumerus -3.93583 -19.9032 17.344
lradius 44.1587 0 0
lwrist 22.2054 0 0
lhand -22.6548 -3.4836 0
lfingers 7.12502 0 0
lthumb 3.77645 26.4627 0
rclavicle -1.27601e-14 1.60425e-14 0
rhumerus -9.83767 -1.02265 -28.0281
rradius 99.324 0 0
rwrist -10.1844 0 0
rhand -25.5843 -32.8195 0
rfingers 7.12502 0 0
rthumb 0.947187 -782.798 0
718
root 5.44609 21.5005 8.1466 -153.606 -84.9944 170.411
lfemur -32.3687 -15.9958 7.57199
ltibia 58.7459 0 0
lfoot 8.44732 -11.4323 0
ltoes 28.8023 0 0
rfemur -34.406 -2.99167 -3.37842
rtibia 105.135 0 0
rfoot 22.1892 -21.7221 0
rtoes 45.2725 0 0
lowerback 5.6471 -0.213104 -1.61589
upperback -1.44391 -0.491517 -1.54752
thorax -4.66027 -0.226274 -0.636097
lowerneck -7.0033 -6.66778 -2.58925
upperneck -0.673185 -8.82867 4.85259
head 1.32924 -4.35751 1.6548
lclavicle -1.07283e-14 1.52046e-14 0
lhumerus -4.93211 -20.0321 17.634
lradius 43.9712 0 0
lwrist 22.0507 0 0
lhand -22.6559 -3.51224 0
lfingers 7.12502 0 0
lthumb 3.77537 26.4342 0
rclavicle -1.07283e-14 1.52046e-14 0
rhumerus -9.19405 -0.800134 -28.1941
rradius 99.2743 0 0
rwrist -10.206 0 0
rhand -25.4763 -32.6157 0
rfingers 7.12502 0 0
rthumb 1.05153 -782.597 0
719
root 5.42408 21.4711 8.30174 -157.143 -84.0328 174.184
lfemur -31.8109 -16.6094 7.22058
ltibia 55.8728 0 0
lfoot 8.92182 -12.121 0
ltoes 28.711 0 0
rfemur -34.3985 -4.05736 -4.31474
rtibia 108.208 0 0
rfoot 22.7819 -21.1646 0
rtoes 45.5802 0 0
lowerback 5.41233 -0.0093498 -1.52891
upperback -1.50614 -0.211349 -1.53971
thorax -4.58739 -0.0891111 -0.690987
lowerneck -7.066 -6.73312 -2.6517
upperneck -0.786666 -8.90828 4.83005
head 1.30804 -4.39946 1.65428
lclavicle -6.86968e-15 1.37344e-14 0
lhumerus -6.48969 -20.2713 18.0603
lradius 43.7884 0 0
lwrist 21.8547 0 0
lhand -22.635 -3.55475 0
lfingers 7.12502 0 0
lthumb 3.79559 26.3914 0
rclavicle -6.86968e-15 1.37344e-14 0
rhumerus -8.18176 -0.509558 -28.366
rradius 99.1971 0 0
rwrist -10.2254 0 0
rhand -25.3694 -32.3267 0
rfingers 7.12502 0 0
rthumb 1.15474 -782.31 0
720
root 5.39369 21.4225 8.49899 -160.515 -82.5667 177.895
lfemur -31.0875 -17.354 6.81337
ltibia 52.1358 0 0
lfoot 9.58845 -13.0411 0
ltoes 28.6321 0 0
rfemur -34.2325 -5.58758 -5.59349
rtibia 111.938 0 0
rfoot 23.6101 -20.2864 0
rtoes 45.7619 0 0
lowerback 5.06085 0.269626 -1.40853
upperback -1.59744 0.172653 -1.5328
thorax -4.47687 0.0987384 -0.770547
lowerneck -7.15632 -6.81265 -2.72649
upperneck -0.930238 -9.00515 4.79554
head 1.28259 -4.45057 1.65078
lclavicle -1.07195e-15 1.16404e-14 0
lhumerus -8.5266 -20.6233 18.595
lradius 43.6865 0 0
lwrist 21.6558 0 0
lhand -22.5809 -3.60713 0
lfingers 7.12502 0 0
lthumb 3.84784 26.338 0
rclavicle -1.07195e-15 1.16404e-14 0
rhumerus -6.84515 -0.195617 -28.492
rradius 99.0943 0 0
rwrist -10.2318 0 0
rhand -25.3075 -31.9877 0
rfingers 7.12502 0 0
rthumb 1.21445 -781.974 0
721
root 5.35551 21.3522 8.7286 -163.168 -80.5778 180.982
lfemur -30.2345 -18.1666 6.38012
ltibia 47.732 0 0
lfoot 10.4138 -14.1446 0
ltoes 28.5709 0 0
rfemur -33.8663 -7.55259 -7.15609
rtibia 116.034 0 0
rfoot 24.6459 -19.0724 0
rtoes 45.7281 0 0
lowerback 4.59667 0.617074 -1.25765
upperback -1.71618 0.651219 -1.52783
thorax -4.3292 0.332729 -0.873509
lowerneck -7.27204 -6.90076 -2.80607
upperneck -1.09487 -9.11261 4.74823
head 1.25477 -4.50739 1.643
lclavicle 6.53593e-15 8.99099e-15 0
lhumerus -10.9628 -21.0753 19.2267
lradius 43.7153 0 0
lwrist 21.4824 0 0
lhand -22.4891 -3.66565 0
lfingers 7.12502 0 0
lthumb 3.93646 26.2778 0
rclavicle 6.53593e-15 8.99099e-15 0
rhumerus -5.22417 0.115458 -28.5506
rradius 98.9652 0 0
rwrist -10.2172 0 0
rhand -25.3205 -31.6287 0
rfingers 7.12502 0 0
rthumb 1.20187 -781.616 0
722
root 5.31035 21.2591 8.98197 -164.785 -78.0822 183.119
lfemur -29.2904 -18.9865 5.93766
ltibia 42.8807 0 0
lfoot 11.3407 -15.368 0
ltoes 28.5178 0 0
rfemur -33.2902 -9.88771 -8.91688
rtibia 120.231 0 0
rfoot 25.843 -17.5353 0
rtoes 45.4259 0 0
lowerback 4.03535 1.02413 -1.08053
upperback -1.85792 1.21202 -1.52494
thorax -4.14849 0.606873 -0.996694
lowerneck -7.40846 -6.99272 -2.88272
upperneck -1.27138 -9.2252 4.68788
head 1.22612 -4.56706 1.62986
lclavicle 1.55838e-14 5.91469e-15 0
lhumerus -13.7203 -21.5996 19.9608
lradius 43.8981 0 0
lwrist 21.3521 0 0
lhand -22.3618 -3.72684 0
lfingers 7.12502 0 0
lthumb 4.05941 26.2142 0
rclavicle 1.55838e-14 5.91469e-15 0
rhumerus -3.35431 0.415901 -28.5502
rradius 98.8067 0 0
rwrist -10.1763 0 0
rhand -25.4241 -31.274 0
rfingers 7.12502 0 0
rthumb 1.10184 -781.262 0
723
root 5.25923 21.1429 9.25171 -165.289 -75.1304 184.21
lfemur -28.2953 -19.7548 5.4899
ltibia 37.823 0 0
lfoot 12.2888 -16.6323 0
ltoes 28.4473 0 0
rfemur -32.5268 -12.4933 -10.7631
rtibia 124.293 0 0
rfoot 27.137 -15.7158 0
rtoes 44.839 0 0
lowerback 3.40404 1.47983 -0.882887
upperback -2.01552 1.83967 -1.52341
thorax -3.94249 0.913745 -1.13501
lowerneck -7.55838 -7.08465 -2.94853
upperneck -1.45047 -9.33862 4.61485
head 1.1978 -4.62734 1.61049
lclavicle 2.54601e-14 2.60031e-15 0
lhumerus -16.7228 -22.1529 20.8188
lradius 44.2323 0 0
lwrist 21.2723 0 0
lhand -22.2077 -3.78746 0
lfingers 7.12502 0 0
lthumb 4.20823 26.1506 0
rclavicle 2.54601e-14 2.60031e-15 0
rhumerus -1.26661 0.716412 -28.5292
rradius 98.6131 0 0
rwrist -10.1062 0 0
rhand -25.6198 -30.9428 0
rfingers 7.12502 0 0
rthumb 0.912819 -780.93 0
724
root 5.20342 21.0051 9.53157 -164.843 -71.8073 184.397
lfemur -27.2916 -20.4149 5.02784
ltibia 32.8221 0 0
lfoot 13.1541 -17.8433 0
ltoes 28.3189 0 0
rfemur -31.631 -15.2347 -12.5551
rtibia 128.007 0 0
rfoot 28.4453 -13.6827 0
rtoes 43.9877 0 0
lowerback 2.74147 1.97107 -0.671796
upperback -2.17905 2.51573 -1.52161
thorax -3.72257 1.24447 -1.28146
lowerneck -7.71211 -7.17353 -2.99545
upperneck -1.62268 -9.44977 4.53007
head 1.1706 -4.6866 1.58423
lclavicle 3.53123e-14 -7.03182e-16 0
lhumerus -19.8962 -22.677 21.8391
lradius 44.6886 0 0
lwrist 21.2398 0 0
lhand -22.0421 -3.84456 0
lfingers 7.12502 0 0
lthumb 4.36808 26.0902 0
rclavicle 3.53123e-14 -7.03182e-16 0
rhumerus 1.01232 1.04616 -28.5561
rradius 98.3762 0 0
rwrist -10.0067 0 0
rhand -25.8952 -30.6487 0
rfingers 7.12502 0 0
rthumb 0.646843 -780.635 0
725
root 5.14441 20.848 9.81651 -163.847 -68.232 184.05
lfemur -26.3237 -20.9121 4.52954
ltibia 28.163 0 0
lfoot 13.8089 -18.8913 0
ltoes 28.0766 0 0
rfemur -30.69 -17.9424 -14.1259
rtibia 131.189 0 0
rfoot 29.6667 -11.5325 0
rtoes 42.9291 0 0
lowerback 2.09794 2.48267 -0.455758
upperback -2.33584 3.21871 -1.51707
thorax -3.50374 1.58875 -1.42712
lowerneck -7.85748 -7.25723 -3.01524
upperneck -1.77844 -9.55671 4.43506
head 1.14496 -4.74384 1.55063
lclavicle 4.40464e-14 -3.68667e-15 0
lhumerus -23.1682 -23.0981 23.0765
lradius 45.2114 0 0
lwrist 21.241 0 0
lhand -21.8871 -3.89542 0
lfingers 7.12502 0 0
lthumb 4.51771 26.0363 0
rclavicle 4.40464e-14 -3.68667e-15 0
rhumerus 3.46031 1.45276 -28.7296
rradius 98.0854 0 0
rwrist -9.88055 0 0
rhand -26.2238 -30.4 0
rfingers 7.12502 0 0
rthumb 0.329573 -780.384 0
